<svg xmlns="http://www.w3.org/2000/svg" xmlns:xlink="http://www.w3.org/1999/xlink" xmlns:lucid="lucid" width="947" height="627"><g transform="translate(-160 -150)" lucid:page-tab-id="0_0"><path d="M200 533.63c0-2.77 2.24-5 5-5h270c2.76 0 5 2.23 5 5v94c0 2.76-2.24 5-5 5H205c-2.76 0-5-2.24-5-5z" fill="#fff"/><path d="M200 600.63h280v32H200z" fill="#e6e6e6"/><path d="M200 528.63h280v40H200z" fill="#ccc"/><path d="M200 533.63c0-2.77 2.24-5 5-5h270c2.76 0 5 2.23 5 5v94c0 2.76-2.24 5-5 5H205c-2.76 0-5-2.24-5-5zM200 568.63h280M340 568.63v64" stroke="#333" fill="none"/><use xlink:href="#a" transform="matrix(1,0,0,1,210,528.6250090381982) translate(0 23.6)"/><use xlink:href="#b" transform="matrix(1,0,0,1,205,571.1250090381982) translate(0 17.1)"/><use xlink:href="#c" transform="matrix(1,0,0,1,345,571.1250090381982) translate(0 17.1)"/><use xlink:href="#d" transform="matrix(1,0,0,1,205,603.1250090381982) translate(0 17.1)"/><use xlink:href="#e" transform="matrix(1,0,0,1,345,603.1250090381982) translate(0 17.1)"/><path d="M740 265c0-2.76 2.24-5 5-5h310.48c2.76 0 5 2.24 5 5v286c0 2.76-2.24 5-5 5H745c-2.76 0-5-2.24-5-5z" fill="#fff"/><path d="M740 332h320.48v32H740zM740 396h320.48v32H740zM740 460h320.48v32H740zM740 524h320.48v32H740z" fill="#e6e6e6"/><path d="M740 260h320.48v40H740z" fill="#ccc"/><path d="M740 265c0-2.76 2.24-5 5-5h310.48c2.76 0 5 2.24 5 5v286c0 2.76-2.24 5-5 5H745c-2.76 0-5-2.24-5-5zM740 300h320.48M881.53 300v256" stroke="#333" fill="none"/><use xlink:href="#f" transform="matrix(1,0,0,1,750,260) translate(0 23.6)"/><use xlink:href="#b" transform="matrix(1,0,0,1,745,302.5) translate(0 17.1)"/><use xlink:href="#c" transform="matrix(1,0,0,1,886.5282512085265,302.5) translate(0 17.1)"/><use xlink:href="#g" transform="matrix(1,0,0,1,745,334.5) translate(0 17.1)"/><use xlink:href="#e" transform="matrix(1,0,0,1,886.5282512085265,334.5) translate(0 17.1)"/><use xlink:href="#h" transform="matrix(1,0,0,1,745,366.5) translate(0 17.1)"/><use xlink:href="#i" transform="matrix(1,0,0,1,886.5282512085265,366.5) translate(0 17.1)"/><use xlink:href="#j" transform="matrix(1,0,0,1,745,398.5) translate(0 17.1)"/><use xlink:href="#e" transform="matrix(1,0,0,1,886.5282512085265,398.5) translate(0 17.1)"/><use xlink:href="#k" transform="matrix(1,0,0,1,745,430.5) translate(0 17.1)"/><use xlink:href="#e" transform="matrix(1,0,0,1,886.5282512085265,430.5) translate(0 17.1)"/><use xlink:href="#l" transform="matrix(1,0,0,1,745,462.5) translate(0 17.1)"/><use xlink:href="#m" transform="matrix(1,0,0,1,886.5282512085265,462.5) translate(0 17.1)"/><use xlink:href="#n" transform="matrix(1,0,0,1,886.5282512085265,462.5) translate(47.9 17.1)"/><use xlink:href="#o" transform="matrix(1,0,0,1,886.5282512085265,462.5) translate(67.9 17.1)"/><use xlink:href="#p" transform="matrix(1,0,0,1,745,494.5) translate(0 17.1)"/><use xlink:href="#m" transform="matrix(1,0,0,1,886.5282512085265,494.5) translate(0 17.1)"/><use xlink:href="#n" transform="matrix(1,0,0,1,886.5282512085265,494.5) translate(47.9 17.1)"/><use xlink:href="#q" transform="matrix(1,0,0,1,886.5282512085265,494.5) translate(67.9 17.1)"/><use xlink:href="#r" transform="matrix(1,0,0,1,745,526.5) translate(0 17.1)"/><use xlink:href="#m" transform="matrix(1,0,0,1,886.5282512085265,526.5) translate(0 17.1)"/><use xlink:href="#n" transform="matrix(1,0,0,1,886.5282512085265,526.5) translate(47.9 17.1)"/><use xlink:href="#s" transform="matrix(1,0,0,1,886.5282512085265,526.5) translate(67.9 17.1)"/><path d="M200 185c0-2.76 2.24-5 5-5h270c2.76 0 5 2.24 5 5v286c0 2.76-2.24 5-5 5H205c-2.76 0-5-2.24-5-5z" fill="#fff"/><path d="M200 252h280v32H200zM200 316h280v32H200zM200 380h280v32H200zM200 444h280v32H200z" fill="#e6e6e6"/><path d="M200 180h280v40H200z" fill="#ccc"/><path d="M200 185c0-2.76 2.24-5 5-5h270c2.76 0 5 2.24 5 5v286c0 2.76-2.24 5-5 5H205c-2.76 0-5-2.24-5-5zM200 220h280M338.28 220v256" stroke="#333" fill="none"/><use xlink:href="#t" transform="matrix(1,0,0,1,210,180) translate(0 23.6)"/><use xlink:href="#b" transform="matrix(1,0,0,1,205,222.5) translate(0 17.1)"/><use xlink:href="#c" transform="matrix(1,0,0,1,343.27983457586146,222.5) translate(0 17.1)"/><use xlink:href="#u" transform="matrix(1,0,0,1,205,254.5) translate(0 17.1)"/><use xlink:href="#e" transform="matrix(1,0,0,1,343.27983457586146,254.5) translate(0 17.1)"/><use xlink:href="#v" transform="matrix(1,0,0,1,205,286.5) translate(0 17.1)"/><use xlink:href="#e" transform="matrix(1,0,0,1,343.27983457586146,286.5) translate(0 17.1)"/><use xlink:href="#w" transform="matrix(1,0,0,1,205,318.5) translate(0 17.1)"/><use xlink:href="#e" transform="matrix(1,0,0,1,343.27983457586146,318.5) translate(0 17.1)"/><use xlink:href="#x" transform="matrix(1,0,0,1,205,350.5) translate(0 17.1)"/><use xlink:href="#e" transform="matrix(1,0,0,1,343.27983457586146,350.5) translate(0 17.1)"/><use xlink:href="#y" transform="matrix(1,0,0,1,205,382.5) translate(0 17.1)"/><use xlink:href="#e" transform="matrix(1,0,0,1,343.27983457586146,382.5) translate(0 17.1)"/><use xlink:href="#z" transform="matrix(1,0,0,1,205,414.5) translate(0 17.1)"/><use xlink:href="#i" transform="matrix(1,0,0,1,343.27983457586146,414.5) translate(0 17.1)"/><use xlink:href="#A" transform="matrix(1,0,0,1,205,446.5) translate(0 17.1)"/><use xlink:href="#i" transform="matrix(1,0,0,1,343.27983457586146,446.5) translate(0 17.1)"/><path d="M453.15 117.16c0-4.42 3.58-8 8-8h837.7c4.42 0 8 3.58 8 8V120c0 4.42-3.58 8-8 8h-837.7c-4.42 0-8-3.58-8-8z" stroke="#000" stroke-opacity="0" stroke-width="2" fill="#fff" fill-opacity="0"/><use xlink:href="#B" transform="matrix(1,0,0,1,457.1465527853434,113.15522395684805) translate(283.4170987654321 14.917037037037037)"/><use xlink:href="#C" transform="matrix(1,0,0,1,457.1465527853434,113.15522395684805) translate(345.32460905349797 14.917037037037037)"/><use xlink:href="#D" transform="matrix(1,0,0,1,457.1465527853434,113.15522395684805) translate(422.6133950617284 14.917037037037037)"/><use xlink:href="#E" transform="matrix(1,0,0,1,457.1465527853434,113.15522395684805) translate(435.0628806584362 14.917037037037037)"/><use xlink:href="#F" transform="matrix(1,0,0,1,457.1465527853434,113.15522395684805) translate(509.717304526749 14.917037037037037)"/><use xlink:href="#G" transform="matrix(1,0,0,1,457.1465527853434,113.15522395684805) translate(535.2111316872429 14.917037037037037)"/><path d="M500.5 235.67H598c6.63 0 12 5.37 12 12V432.1c0 6.64 5.37 12 12 12h98.1" stroke="#333" fill="none"/><path d="M500.5 245.67v-20M480.5 235.67h20M739.28 454.1l-20-10 20-10M739.28 444.1h-20" stroke="#333" fill="#fff"/><path d="M500.5 584.64H598c6.63 0 12-5.37 12-12V520.3c0-6.62 5.37-12 12-12h98.1" stroke="#333" fill="none"/><path d="M480.72 574.64l20 10-20 10M480.72 584.64h20M500.72 594.64v-20M739.28 518.3l-20-10 20-10M739.28 508.3h-20" stroke="#333" fill="#fff"/><path d="M749.76 618.2c0-4.42 3.58-8 8-8h284.96c4.42 0 8 3.58 8 8v123.6c0 4.42-3.58 8-8 8H757.76c-4.42 0-8-3.58-8-8z" stroke="#000" stroke-opacity="0" fill="#fff" fill-opacity="0"/><g><use xlink:href="#H" transform="matrix(1,0,0,1,754.7606535097002,615.2) translate(0 14.4)"/><use xlink:href="#I" transform="matrix(1,0,0,1,754.7606535097002,615.2) translate(91.75000000000001 14.4)"/><use xlink:href="#J" transform="matrix(1,0,0,1,754.7606535097002,615.2) translate(183.55 14.4)"/><use xlink:href="#K" transform="matrix(1,0,0,1,754.7606535097002,615.2) translate(0 36)"/><use xlink:href="#L" transform="matrix(1,0,0,1,754.7606535097002,615.2) translate(20.95 36)"/><use xlink:href="#M" transform="matrix(1,0,0,1,754.7606535097002,615.2) translate(105.85000000000001 36)"/><use xlink:href="#N" transform="matrix(1,0,0,1,754.7606535097002,615.2) translate(158.75 36)"/><use xlink:href="#O" transform="matrix(1,0,0,1,754.7606535097002,615.2) translate(0 57.6)"/><use xlink:href="#P" transform="matrix(1,0,0,1,754.7606535097002,615.2) translate(20.95 57.6)"/><use xlink:href="#Q" transform="matrix(1,0,0,1,754.7606535097002,615.2) translate(87.9 57.6)"/><use xlink:href="#R" transform="matrix(1,0,0,1,754.7606535097002,615.2) translate(106.85000000000001 57.6)"/><use xlink:href="#S" transform="matrix(1,0,0,1,754.7606535097002,615.2) translate(160.70000000000002 57.6)"/><use xlink:href="#T" transform="matrix(1,0,0,1,754.7606535097002,615.2) translate(0 79.20000000000002)"/><use xlink:href="#R" transform="matrix(1,0,0,1,754.7606535097002,615.2) translate(20.95 79.20000000000002)"/><use xlink:href="#U" transform="matrix(1,0,0,1,754.7606535097002,615.2) translate(74.80000000000001 79.20000000000002)"/><use xlink:href="#N" transform="matrix(1,0,0,1,754.7606535097002,615.2) translate(111.70000000000002 79.20000000000002)"/><use xlink:href="#V" transform="matrix(1,0,0,1,754.7606535097002,615.2) translate(0 100.80000000000001)"/><use xlink:href="#P" transform="matrix(1,0,0,1,754.7606535097002,615.2) translate(20.95 100.80000000000001)"/><use xlink:href="#Q" transform="matrix(1,0,0,1,754.7606535097002,615.2) translate(87.9 100.80000000000001)"/><use xlink:href="#W" transform="matrix(1,0,0,1,754.7606535097002,615.2) translate(106.85000000000001 100.80000000000001)"/><use xlink:href="#S" transform="matrix(1,0,0,1,754.7606535097002,615.2) translate(175.65000000000003 100.80000000000001)"/><use xlink:href="#X" transform="matrix(1,0,0,1,754.7606535097002,615.2) translate(0 122.4)"/><use xlink:href="#W" transform="matrix(1,0,0,1,754.7606535097002,615.2) translate(20.95 122.4)"/><use xlink:href="#U" transform="matrix(1,0,0,1,754.7606535097002,615.2) translate(89.75000000000001 122.4)"/><use xlink:href="#Y" transform="matrix(1,0,0,1,754.7606535097002,615.2) translate(126.65000000000002 122.4)"/></g><defs><path fill="#333" d="M125-24c46 0 70-25 89-51l25 16C214-24 183 4 123 4 8 4-5-146 60-208c32-50 158-61 191-5 5 7 9 14 11 22l-32 10c-9-28-33-43-69-43-74 0-108 51-108 125 0 46 24 75 72 75" id="Z"/><path fill="#333" d="M165-48c-4 18 1 34 23 27l-3 20c-29 8-62 0-52-35h-2C116-14 99 4 63 4 30 4 8-16 8-49c0-68 71-67 138-67 10-26 0-56-31-54-26 1-42 9-47 31l-32-5c8-67 160-71 144 15-5 28-9 54-15 81zM42-50c3 52 80 24 89-6 7-12 7-24 11-38-47 1-103-4-100 44" id="aa"/><path fill="#333" d="M51-54c-9 22 5 41 31 30L79-1C43 14 10-4 19-52l22-115H19l5-23h22l19-43h21l-9 43h35l-4 23H73" id="ab"/><path fill="#333" d="M111-194c62-3 86 47 72 106H45c-7 38 6 69 45 68 27-1 43-14 53-32l24 11C152-15 129 4 87 4 38 3 12-23 12-71c0-70 32-119 99-123zm44 81c14-66-71-72-95-28-4 8-8 17-11 28h106" id="ac"/><path fill="#333" d="M103-194c29 0 47 14 56 36 2-11 5-23 8-32h30L160-5C157 61 82 97 21 62 9 55 4 45 1 30l28-7c7 42 83 31 92-3 4-16 9-38 13-55-13 20-29 36-62 36-40 0-60-25-60-64 0-71 23-131 91-131zm4 24c-53 0-58 54-61 104-2 27 10 44 36 44 49 0 65-50 67-102 1-29-15-46-42-46" id="ad"/><path fill="#333" d="M30-147c31-64 166-65 159 27C183-49 158 1 86 4 9 8 1-88 30-147zM88-20c53 0 68-48 68-100 0-31-11-51-44-50-52 1-68 46-68 97 0 32 13 53 44 53" id="ae"/><path fill="#333" d="M66-151c12-25 30-51 66-40l-6 26C45-176 58-65 38 0H6l36-190h30" id="af"/><path fill="#333" d="M50-231l6-30h32l-6 30H50zM6 0l37-190h31L37 0H6" id="ag"/><path fill="#333" d="M55-144c13 50 104 24 104 88C159 21 15 23 1-39l26-10c6 40 102 42 102-4-13-50-104-23-104-87 0-71 143-71 148-8l-29 4c-5-35-85-37-89 0" id="ah"/><g id="a"><use transform="matrix(0.05,0,0,0.05,0,0)" xlink:href="#Z"/><use transform="matrix(0.05,0,0,0.05,12.950000000000001,0)" xlink:href="#aa"/><use transform="matrix(0.05,0,0,0.05,22.950000000000003,0)" xlink:href="#ab"/><use transform="matrix(0.05,0,0,0.05,27.950000000000003,0)" xlink:href="#ac"/><use transform="matrix(0.05,0,0,0.05,37.95,0)" xlink:href="#ad"/><use transform="matrix(0.05,0,0,0.05,47.95,0)" xlink:href="#ae"/><use transform="matrix(0.05,0,0,0.05,57.95,0)" xlink:href="#af"/><use transform="matrix(0.05,0,0,0.05,63.900000000000006,0)" xlink:href="#ag"/><use transform="matrix(0.05,0,0,0.05,67.85000000000001,0)" xlink:href="#ac"/><use transform="matrix(0.05,0,0,0.05,77.85000000000001,0)" xlink:href="#ah"/></g><path fill="#333" d="M-28 44V31h207v13H-28" id="ai"/><path fill="#333" d="M133-28C103 26-5 8 13-77c13-62 24-115 90-117 29-1 46 15 56 35l19-102h32L160 0h-30zM45-64c-2 27 10 43 35 43 54-1 69-50 69-103 0-29-15-46-42-46-53-1-58 58-62 106" id="aj"/><g id="b"><use transform="matrix(0.05,0,0,0.05,0,0)" xlink:href="#ai"/><use transform="matrix(0.05,0,0,0.05,10,0)" xlink:href="#ag"/><use transform="matrix(0.05,0,0,0.05,13.949999999999998,0)" xlink:href="#aj"/></g><path fill="#333" d="M20-101c0-91 52-143 145-150 126-9 127 168 53 223-23 17-55 32-93 32C57 4 20-33 20-101zm216-33c5-57-18-91-73-90-77 1-110 51-110 125 0 49 23 75 73 75 72-1 104-45 110-110" id="ak"/><path fill="#333" d="M68-162c25-46 127-43 121 31C183-60 169 1 98 4 69 5 53-11 43-31L36 0H5l52-261h31zm88 36c2-27-9-43-34-43-55 0-70 51-70 103 0 29 15 45 43 46 52 0 58-58 61-106" id="al"/><path fill="#333" d="M51-231l6-30h31l-6 30H51zM33 24C28 60 2 84-40 72c3-12-1-29 18-22C-5 49-1 37 2 19l41-209h32" id="am"/><path fill="#333" d="M44-68c0 29 11 47 38 47 30 0 42-19 51-41l28 9C148-21 126 4 82 4 31 4 10-29 12-85c3-77 74-140 146-93 12 8 15 23 18 40l-31 5c-1-22-13-36-36-36-52 0-65 49-65 101" id="an"/><path fill="#333" d="M14 0l48-248h34L48 0H14" id="ao"/><path fill="#333" d="M248-139C247-14 144 9 11 0l48-248c105-6 190 8 189 109zm-34 0c1-70-52-87-126-82L50-27c98 7 163-21 164-112" id="ap"/><g id="c"><use transform="matrix(0.05,0,0,0.05,0,0)" xlink:href="#ak"/><use transform="matrix(0.05,0,0,0.05,14,0)" xlink:href="#al"/><use transform="matrix(0.05,0,0,0.05,24,0)" xlink:href="#am"/><use transform="matrix(0.05,0,0,0.05,27.950000000000003,0)" xlink:href="#ac"/><use transform="matrix(0.05,0,0,0.05,37.95,0)" xlink:href="#an"/><use transform="matrix(0.05,0,0,0.05,46.95,0)" xlink:href="#ab"/><use transform="matrix(0.05,0,0,0.05,51.95,0)" xlink:href="#ao"/><use transform="matrix(0.05,0,0,0.05,56.95,0)" xlink:href="#ap"/></g><path fill="#333" d="M67-158c22-48 132-52 116 29L158 0h-32l25-140c3-38-53-32-70-12C52-117 51-52 38 0H6l36-190h30" id="aq"/><path fill="#333" d="M248-111c6-24 9-61-24-58-72 9-57 108-77 169h-31l26-142c3-37-50-30-64-10C52-115 50-51 37 0H6l36-190h30c-1 10-6 24-4 32 13-43 101-52 105 5 13-22 29-41 61-41 90 0 28 129 23 194h-31" id="ar"/><g id="d"><use transform="matrix(0.05,0,0,0.05,0,0)" xlink:href="#aq"/><use transform="matrix(0.05,0,0,0.05,10,0)" xlink:href="#aa"/><use transform="matrix(0.05,0,0,0.05,20,0)" xlink:href="#ar"/><use transform="matrix(0.05,0,0,0.05,34.95,0)" xlink:href="#ac"/></g><path fill="#333" d="M194-120c59 52 2 134-86 124-53-6-90-18-98-63l31-7c8 30 29 43 70 43 46 0 84-17 71-62-32-43-135-20-137-98-3-89 178-90 191-16l-30 9c-8-48-127-53-127 5 0 53 81 35 115 65" id="as"/><g id="e"><use transform="matrix(0.05,0,0,0.05,0,0)" xlink:href="#as"/><use transform="matrix(0.05,0,0,0.05,12,0)" xlink:href="#ab"/><use transform="matrix(0.05,0,0,0.05,17,0)" xlink:href="#af"/><use transform="matrix(0.05,0,0,0.05,22.95,0)" xlink:href="#ag"/><use transform="matrix(0.05,0,0,0.05,26.899999999999995,0)" xlink:href="#aq"/><use transform="matrix(0.05,0,0,0.05,36.9,0)" xlink:href="#ad"/></g><path fill="#333" d="M249-183c0 48-29 72-75 77L221 0h-36l-43-103H65L45 0H11l48-248c83 2 190-17 190 65zm-34 3c0-55-74-39-127-41l-18 92c63-1 145 13 145-51" id="at"/><path fill="#333" d="M67-162c32-53 139-36 121 50C175-51 163 2 97 4 68 4 52-11 42-31 38 6 28 39 22 75H-9l50-265h29c-1 10 0 20-3 28zm89 36c0-26-10-43-35-43-54 0-67 50-69 103-1 29 14 45 42 46 53 0 62-58 62-106" id="au"/><g id="f"><use transform="matrix(0.05,0,0,0.05,0,0)" xlink:href="#at"/><use transform="matrix(0.05,0,0,0.05,12.950000000000001,0)" xlink:href="#ac"/><use transform="matrix(0.05,0,0,0.05,22.950000000000003,0)" xlink:href="#an"/><use transform="matrix(0.05,0,0,0.05,31.950000000000003,0)" xlink:href="#ag"/><use transform="matrix(0.05,0,0,0.05,35.900000000000006,0)" xlink:href="#au"/><use transform="matrix(0.05,0,0,0.05,45.900000000000006,0)" xlink:href="#ac"/><use transform="matrix(0.05,0,0,0.05,55.900000000000006,0)" xlink:href="#ah"/></g><path fill="#333" d="M67 3c-93-2-31-127-26-193h32L48-50c-3 39 53 32 70 12 30-34 30-101 43-152h32L157 0h-30c1-10 6-24 4-33-14 20-29 37-64 36" id="av"/><g id="g"><use transform="matrix(0.05,0,0,0.05,0,0)" xlink:href="#au"/><use transform="matrix(0.05,0,0,0.05,10,0)" xlink:href="#ag"/><use transform="matrix(0.05,0,0,0.05,13.949999999999998,0)" xlink:href="#an"/><use transform="matrix(0.05,0,0,0.05,22.95,0)" xlink:href="#ab"/><use transform="matrix(0.05,0,0,0.05,27.950000000000003,0)" xlink:href="#av"/><use transform="matrix(0.05,0,0,0.05,37.95,0)" xlink:href="#af"/><use transform="matrix(0.05,0,0,0.05,43.900000000000006,0)" xlink:href="#ac"/></g><path fill="#333" d="M6 0l50-261h32L37 0H6" id="aw"/><g id="h"><use transform="matrix(0.05,0,0,0.05,0,0)" xlink:href="#au"/><use transform="matrix(0.05,0,0,0.05,10,0)" xlink:href="#av"/><use transform="matrix(0.05,0,0,0.05,20,0)" xlink:href="#al"/><use transform="matrix(0.05,0,0,0.05,30,0)" xlink:href="#aw"/><use transform="matrix(0.05,0,0,0.05,33.95,0)" xlink:href="#ag"/><use transform="matrix(0.05,0,0,0.05,37.900000000000006,0)" xlink:href="#an"/><use transform="matrix(0.05,0,0,0.05,46.900000000000006,0)" xlink:href="#at"/><use transform="matrix(0.05,0,0,0.05,59.85,0)" xlink:href="#ac"/><use transform="matrix(0.05,0,0,0.05,69.85000000000001,0)" xlink:href="#an"/><use transform="matrix(0.05,0,0,0.05,78.85000000000001,0)" xlink:href="#ag"/><use transform="matrix(0.05,0,0,0.05,82.80000000000001,0)" xlink:href="#au"/><use transform="matrix(0.05,0,0,0.05,92.80000000000001,0)" xlink:href="#ac"/><use transform="matrix(0.05,0,0,0.05,102.80000000000001,0)" xlink:href="#ah"/></g><path fill="#333" d="M219-77C219 17 104-2 11 0l48-248c73 2 169-15 169 57 0 38-24 54-60 60 29 5 51 21 51 54zm-26-111c0-44-62-31-105-33l-16 79c55 0 121 9 121-46zm-7 110c-1-49-69-36-119-38L50-27c61-1 137 12 136-51" id="ax"/><g id="i"><use transform="matrix(0.05,0,0,0.05,0,0)" xlink:href="#ax"/><use transform="matrix(0.05,0,0,0.05,12,0)" xlink:href="#ae"/><use transform="matrix(0.05,0,0,0.05,22,0)" xlink:href="#ae"/><use transform="matrix(0.05,0,0,0.05,32,0)" xlink:href="#aw"/><use transform="matrix(0.05,0,0,0.05,35.95,0)" xlink:href="#ac"/><use transform="matrix(0.05,0,0,0.05,45.95,0)" xlink:href="#aa"/><use transform="matrix(0.05,0,0,0.05,55.95,0)" xlink:href="#aq"/></g><g id="j"><use transform="matrix(0.05,0,0,0.05,0,0)" xlink:href="#ab"/><use transform="matrix(0.05,0,0,0.05,5,0)" xlink:href="#ag"/><use transform="matrix(0.05,0,0,0.05,8.95,0)" xlink:href="#ab"/><use transform="matrix(0.05,0,0,0.05,13.949999999999998,0)" xlink:href="#aw"/><use transform="matrix(0.05,0,0,0.05,17.9,0)" xlink:href="#ac"/></g><path fill="#333" d="M67-158c15-20 31-36 64-36 94 0 33 127 27 194h-32l25-140c3-38-53-32-70-12C52-117 51-51 37 0H6l51-261h31" id="ay"/><g id="k"><use transform="matrix(0.05,0,0,0.05,0,0)" xlink:href="#aa"/><use transform="matrix(0.05,0,0,0.05,10,0)" xlink:href="#av"/><use transform="matrix(0.05,0,0,0.05,20,0)" xlink:href="#ab"/><use transform="matrix(0.05,0,0,0.05,25,0)" xlink:href="#ay"/><use transform="matrix(0.05,0,0,0.05,35,0)" xlink:href="#ae"/><use transform="matrix(0.05,0,0,0.05,45,0)" xlink:href="#af"/></g><g id="l"><use transform="matrix(0.05,0,0,0.05,0,0)" xlink:href="#ag"/><use transform="matrix(0.05,0,0,0.05,3.95,0)" xlink:href="#aq"/><use transform="matrix(0.05,0,0,0.05,13.949999999999998,0)" xlink:href="#ah"/><use transform="matrix(0.05,0,0,0.05,22.95,0)" xlink:href="#ab"/><use transform="matrix(0.05,0,0,0.05,27.950000000000003,0)" xlink:href="#af"/><use transform="matrix(0.05,0,0,0.05,33.9,0)" xlink:href="#av"/><use transform="matrix(0.05,0,0,0.05,43.9,0)" xlink:href="#an"/><use transform="matrix(0.05,0,0,0.05,52.900000000000006,0)" xlink:href="#ab"/><use transform="matrix(0.05,0,0,0.05,57.900000000000006,0)" xlink:href="#ag"/><use transform="matrix(0.05,0,0,0.05,61.85,0)" xlink:href="#ae"/><use transform="matrix(0.05,0,0,0.05,71.85,0)" xlink:href="#aq"/><use transform="matrix(0.05,0,0,0.05,81.85,0)" xlink:href="#ah"/></g><path fill="#333" d="M187 0l-14-72H61L19 0h-37l149-248h38L221 0h-34zm-19-99l-22-123L76-99h92" id="az"/><path fill="#333" d="M198-190L69 30C53 58 25 83-20 72c4-11-1-27 19-22 33-1 43-29 59-52L20-190h32L79-34l84-156h35" id="aA"/><g id="m"><use transform="matrix(0.05,0,0,0.05,0,0)" xlink:href="#az"/><use transform="matrix(0.05,0,0,0.05,12,0)" xlink:href="#af"/><use transform="matrix(0.05,0,0,0.05,17.95,0)" xlink:href="#af"/><use transform="matrix(0.05,0,0,0.05,23.9,0)" xlink:href="#aa"/><use transform="matrix(0.05,0,0,0.05,33.9,0)" xlink:href="#aA"/></g><path fill="#333" d="M76-167L44 0H12l33-167H18l4-23h27c3-47 25-81 82-69l-4 24c-35-8-44 15-46 45h37l-5 23H76" id="aB"/><g id="n"><use transform="matrix(0.05,0,0,0.05,0,0)" xlink:href="#ae"/><use transform="matrix(0.05,0,0,0.05,10,0)" xlink:href="#aB"/></g><g id="o"><use transform="matrix(0.05,0,0,0.05,0,0)" xlink:href="#as"/><use transform="matrix(0.05,0,0,0.05,12,0)" xlink:href="#ab"/><use transform="matrix(0.05,0,0,0.05,17,0)" xlink:href="#af"/><use transform="matrix(0.05,0,0,0.05,22.95,0)" xlink:href="#ag"/><use transform="matrix(0.05,0,0,0.05,26.899999999999995,0)" xlink:href="#aq"/><use transform="matrix(0.05,0,0,0.05,36.9,0)" xlink:href="#ad"/><use transform="matrix(0.05,0,0,0.05,46.9,0)" xlink:href="#ah"/></g><g id="p"><use transform="matrix(0.05,0,0,0.05,0,0)" xlink:href="#an"/><use transform="matrix(0.05,0,0,0.05,9,0)" xlink:href="#aa"/><use transform="matrix(0.05,0,0,0.05,19,0)" xlink:href="#ab"/><use transform="matrix(0.05,0,0,0.05,24,0)" xlink:href="#ac"/><use transform="matrix(0.05,0,0,0.05,34,0)" xlink:href="#ad"/><use transform="matrix(0.05,0,0,0.05,44,0)" xlink:href="#ae"/><use transform="matrix(0.05,0,0,0.05,54,0)" xlink:href="#af"/><use transform="matrix(0.05,0,0,0.05,59.95,0)" xlink:href="#ag"/><use transform="matrix(0.05,0,0,0.05,63.900000000000006,0)" xlink:href="#ac"/><use transform="matrix(0.05,0,0,0.05,73.9,0)" xlink:href="#ah"/></g><g id="q"><use transform="matrix(0.05,0,0,0.05,0,0)" xlink:href="#ak"/><use transform="matrix(0.05,0,0,0.05,14,0)" xlink:href="#al"/><use transform="matrix(0.05,0,0,0.05,24,0)" xlink:href="#am"/><use transform="matrix(0.05,0,0,0.05,27.950000000000003,0)" xlink:href="#ac"/><use transform="matrix(0.05,0,0,0.05,37.95,0)" xlink:href="#an"/><use transform="matrix(0.05,0,0,0.05,46.95,0)" xlink:href="#ab"/><use transform="matrix(0.05,0,0,0.05,51.95,0)" xlink:href="#ao"/><use transform="matrix(0.05,0,0,0.05,56.95,0)" xlink:href="#ap"/><use transform="matrix(0.05,0,0,0.05,69.9,0)" xlink:href="#ah"/></g><g id="r"><use transform="matrix(0.05,0,0,0.05,0,0)" xlink:href="#ag"/><use transform="matrix(0.05,0,0,0.05,3.95,0)" xlink:href="#aq"/><use transform="matrix(0.05,0,0,0.05,13.949999999999998,0)" xlink:href="#ad"/><use transform="matrix(0.05,0,0,0.05,23.95,0)" xlink:href="#af"/><use transform="matrix(0.05,0,0,0.05,29.899999999999995,0)" xlink:href="#ac"/><use transform="matrix(0.05,0,0,0.05,39.9,0)" xlink:href="#aj"/><use transform="matrix(0.05,0,0,0.05,49.9,0)" xlink:href="#ag"/><use transform="matrix(0.05,0,0,0.05,53.85,0)" xlink:href="#ac"/><use transform="matrix(0.05,0,0,0.05,63.85,0)" xlink:href="#aq"/><use transform="matrix(0.05,0,0,0.05,73.85,0)" xlink:href="#ab"/><use transform="matrix(0.05,0,0,0.05,78.85,0)" xlink:href="#ah"/></g><g id="s"><use transform="matrix(0.05,0,0,0.05,0,0)" xlink:href="#az"/><use transform="matrix(0.05,0,0,0.05,12,0)" xlink:href="#af"/><use transform="matrix(0.05,0,0,0.05,17.95,0)" xlink:href="#af"/><use transform="matrix(0.05,0,0,0.05,23.9,0)" xlink:href="#aa"/><use transform="matrix(0.05,0,0,0.05,33.9,0)" xlink:href="#aA"/><use transform="matrix(0.05,0,0,0.05,42.9,0)" xlink:href="#ah"/></g><path fill="#333" d="M62-99C39-31 123 0 170-40s38-139 58-208h34C234-144 253 4 115 4 49 4 18-43 31-112l26-136h34" id="aC"/><g id="t"><use transform="matrix(0.05,0,0,0.05,0,0)" xlink:href="#aC"/><use transform="matrix(0.05,0,0,0.05,12.950000000000001,0)" xlink:href="#ah"/><use transform="matrix(0.05,0,0,0.05,21.950000000000003,0)" xlink:href="#ac"/><use transform="matrix(0.05,0,0,0.05,31.950000000000003,0)" xlink:href="#af"/><use transform="matrix(0.05,0,0,0.05,37.900000000000006,0)" xlink:href="#ah"/></g><g id="u"><use transform="matrix(0.05,0,0,0.05,0,0)" xlink:href="#av"/><use transform="matrix(0.05,0,0,0.05,10,0)" xlink:href="#ah"/><use transform="matrix(0.05,0,0,0.05,19,0)" xlink:href="#ac"/><use transform="matrix(0.05,0,0,0.05,29,0)" xlink:href="#af"/><use transform="matrix(0.05,0,0,0.05,34.95,0)" xlink:href="#aq"/><use transform="matrix(0.05,0,0,0.05,44.95,0)" xlink:href="#aa"/><use transform="matrix(0.05,0,0,0.05,54.95,0)" xlink:href="#ar"/><use transform="matrix(0.05,0,0,0.05,69.9,0)" xlink:href="#ac"/></g><path fill="#333" d="M188 0h-37l-8-164L71 0H34L18-190h31l8 164 75-164h34l8 164 74-164h31" id="aD"/><g id="v"><use transform="matrix(0.05,0,0,0.05,0,0)" xlink:href="#au"/><use transform="matrix(0.05,0,0,0.05,10,0)" xlink:href="#aa"/><use transform="matrix(0.05,0,0,0.05,20,0)" xlink:href="#ah"/><use transform="matrix(0.05,0,0,0.05,29,0)" xlink:href="#ah"/><use transform="matrix(0.05,0,0,0.05,38,0)" xlink:href="#aD"/><use transform="matrix(0.05,0,0,0.05,50.95,0)" xlink:href="#ae"/><use transform="matrix(0.05,0,0,0.05,60.95,0)" xlink:href="#af"/><use transform="matrix(0.05,0,0,0.05,66.9,0)" xlink:href="#aj"/></g><g id="w"><use transform="matrix(0.05,0,0,0.05,0,0)" xlink:href="#ac"/><use transform="matrix(0.05,0,0,0.05,10,0)" xlink:href="#ar"/><use transform="matrix(0.05,0,0,0.05,24.950000000000003,0)" xlink:href="#aa"/><use transform="matrix(0.05,0,0,0.05,34.95,0)" xlink:href="#ag"/><use transform="matrix(0.05,0,0,0.05,38.900000000000006,0)" xlink:href="#aw"/></g><path fill="#333" d="M173 0L80-213 41 0H11l48-248h37l94 214 40-214h30L212 0h-39" id="aE"/><g id="x"><use transform="matrix(0.05,0,0,0.05,0,0)" xlink:href="#aB"/><use transform="matrix(0.05,0,0,0.05,5,0)" xlink:href="#ag"/><use transform="matrix(0.05,0,0,0.05,8.95,0)" xlink:href="#af"/><use transform="matrix(0.05,0,0,0.05,14.899999999999999,0)" xlink:href="#ah"/><use transform="matrix(0.05,0,0,0.05,23.9,0)" xlink:href="#ab"/><use transform="matrix(0.05,0,0,0.05,28.899999999999995,0)" xlink:href="#aE"/><use transform="matrix(0.05,0,0,0.05,41.85,0)" xlink:href="#aa"/><use transform="matrix(0.05,0,0,0.05,51.85,0)" xlink:href="#ar"/><use transform="matrix(0.05,0,0,0.05,66.8,0)" xlink:href="#ac"/></g><g id="y"><use transform="matrix(0.05,0,0,0.05,0,0)" xlink:href="#aw"/><use transform="matrix(0.05,0,0,0.05,3.95,0)" xlink:href="#aa"/><use transform="matrix(0.05,0,0,0.05,13.949999999999998,0)" xlink:href="#ah"/><use transform="matrix(0.05,0,0,0.05,22.95,0)" xlink:href="#ab"/><use transform="matrix(0.05,0,0,0.05,27.950000000000003,0)" xlink:href="#aE"/><use transform="matrix(0.05,0,0,0.05,40.9,0)" xlink:href="#aa"/><use transform="matrix(0.05,0,0,0.05,50.9,0)" xlink:href="#ar"/><use transform="matrix(0.05,0,0,0.05,65.85,0)" xlink:href="#ac"/></g><path fill="#333" d="M222 0l43-216c-8 16-17 34-26 49L143 0h-22L81-216 41 0H11l48-248h42l38 208 116-208h45L252 0h-30" id="aF"/><g id="z"><use transform="matrix(0.05,0,0,0.05,0,0)" xlink:href="#av"/><use transform="matrix(0.05,0,0,0.05,10,0)" xlink:href="#ah"/><use transform="matrix(0.05,0,0,0.05,19,0)" xlink:href="#ac"/><use transform="matrix(0.05,0,0,0.05,29,0)" xlink:href="#ah"/><use transform="matrix(0.05,0,0,0.05,38,0)" xlink:href="#aF"/><use transform="matrix(0.05,0,0,0.05,52.95,0)" xlink:href="#ac"/><use transform="matrix(0.05,0,0,0.05,62.95,0)" xlink:href="#ab"/><use transform="matrix(0.05,0,0,0.05,67.95,0)" xlink:href="#af"/><use transform="matrix(0.05,0,0,0.05,73.9,0)" xlink:href="#ag"/><use transform="matrix(0.05,0,0,0.05,77.85000000000001,0)" xlink:href="#an"/></g><path fill="#333" d="M119 0H84L31-248h34l41 218 126-218h36" id="aG"/><g id="A"><use transform="matrix(0.05,0,0,0.05,0,0)" xlink:href="#ag"/><use transform="matrix(0.05,0,0,0.05,3.95,0)" xlink:href="#ah"/><use transform="matrix(0.05,0,0,0.05,12.949999999999998,0)" xlink:href="#aG"/><use transform="matrix(0.05,0,0,0.05,24.299999999999997,0)" xlink:href="#ac"/><use transform="matrix(0.05,0,0,0.05,34.3,0)" xlink:href="#af"/><use transform="matrix(0.05,0,0,0.05,40.25,0)" xlink:href="#ag"/><use transform="matrix(0.05,0,0,0.05,44.2,0)" xlink:href="#aB"/><use transform="matrix(0.05,0,0,0.05,49.2,0)" xlink:href="#ag"/><use transform="matrix(0.05,0,0,0.05,53.150000000000006,0)" xlink:href="#ac"/><use transform="matrix(0.05,0,0,0.05,63.150000000000006,0)" xlink:href="#aj"/></g><path fill="#a9afb8" d="M153-248C145-148 188 4 80 4 36 3 13-21 6-62l32-5c4 25 16 42 43 43 27 0 39-20 39-49v-147H72v-28h81" id="aH"/><path fill="#a9afb8" d="M100-194c62-1 85 37 85 99 1 63-27 99-86 99S16-35 15-95c0-66 28-99 85-99zM99-20c44 1 53-31 53-75 0-43-8-75-51-75s-53 32-53 75 10 74 51 75" id="aI"/><path fill="#a9afb8" d="M117-194c89-4 53 116 60 194h-32v-121c0-31-8-49-39-48C34-167 62-67 57 0H25l-1-190h30c1 10-1 24 2 32 11-22 29-35 61-36" id="aJ"/><path fill="#a9afb8" d="M30 0v-248h187v28H63v79h144v27H63v87h162V0H30" id="aK"/><path fill="#a9afb8" d="M24 0v-261h32V0H24" id="aL"/><path fill="#a9afb8" d="M24-231v-30h32v30H24zM24 0v-190h32V0H24" id="aM"/><path fill="#a9afb8" d="M59-47c-2 24 18 29 38 22v24C64 9 27 4 27-40v-127H5v-23h24l9-43h21v43h35v23H59v120" id="aN"/><g id="B"><use transform="matrix(0.04248971193415638,0,0,0.04248971193415638,0,0)" xlink:href="#aH"/><use transform="matrix(0.04248971193415638,0,0,0.04248971193415638,7.648148148148148,0)" xlink:href="#aI"/><use transform="matrix(0.04248971193415638,0,0,0.04248971193415638,16.14609053497942,0)" xlink:href="#aJ"/><use transform="matrix(0.04248971193415638,0,0,0.04248971193415638,24.644032921810698,0)" xlink:href="#aK"/><use transform="matrix(0.04248971193415638,0,0,0.04248971193415638,34.84156378600823,0)" xlink:href="#aL"/><use transform="matrix(0.04248971193415638,0,0,0.04248971193415638,38.19825102880658,0)" xlink:href="#aL"/><use transform="matrix(0.04248971193415638,0,0,0.04248971193415638,41.55493827160493,0)" xlink:href="#aM"/><use transform="matrix(0.04248971193415638,0,0,0.04248971193415638,44.91162551440328,0)" xlink:href="#aI"/><use transform="matrix(0.04248971193415638,0,0,0.04248971193415638,53.40956790123455,0)" xlink:href="#aN"/></g><path fill="#a9afb8" d="M205 0l-28-72H64L36 0H1l101-248h38L239 0h-34zm-38-99l-47-123c-12 45-31 82-46 123h93" id="aO"/><path fill="#a9afb8" d="M177-190C167-65 218 103 67 71c-23-6-38-20-44-43l32-5c15 47 100 32 89-28v-30C133-14 115 1 83 1 29 1 15-40 15-95c0-56 16-97 71-98 29-1 48 16 59 35 1-10 0-23 2-32h30zM94-22c36 0 50-32 50-73 0-42-14-75-50-75-39 0-46 34-46 75s6 73 46 73" id="aP"/><g id="C"><use transform="matrix(0.04248971193415638,0,0,0.04248971193415638,0,0)" xlink:href="#aO"/><use transform="matrix(0.04248971193415638,0,0,0.04248971193415638,10.19753086419753,0)" xlink:href="#aJ"/><use transform="matrix(0.04248971193415638,0,0,0.04248971193415638,18.695473251028805,0)" xlink:href="#aN"/><use transform="matrix(0.04248971193415638,0,0,0.04248971193415638,22.944444444444443,0)" xlink:href="#aI"/><use transform="matrix(0.04248971193415638,0,0,0.04248971193415638,31.44238683127572,0)" xlink:href="#aP"/><use transform="matrix(0.04248971193415638,0,0,0.04248971193415638,39.940329218106996,0)" xlink:href="#aJ"/><use transform="matrix(0.04248971193415638,0,0,0.04248971193415638,48.43827160493827,0)" xlink:href="#aI"/><use transform="matrix(0.04248971193415638,0,0,0.04248971193415638,56.93621399176954,0)" xlink:href="#aJ"/><use transform="matrix(0.04248971193415638,0,0,0.04248971193415638,65.43415637860082,0)" xlink:href="#aM"/></g><path fill="#a9afb8" d="M32 76v-337h29V76H32" id="aQ"/><use transform="matrix(0.04248971193415638,0,0,0.04248971193415638,0,0)" xlink:href="#aQ" id="D"/><path fill="#a9afb8" d="M190 0L58-211 59 0H30v-248h39L202-35l-2-213h31V0h-41" id="aR"/><path fill="#a9afb8" d="M108 0H70L1-190h34L89-25l56-165h34" id="aS"/><path fill="#a9afb8" d="M100-194c63 0 86 42 84 106H49c0 40 14 67 53 68 26 1 43-12 49-29l28 8c-11 28-37 45-77 45C44 4 14-33 15-96c1-61 26-98 85-98zm52 81c6-60-76-77-97-28-3 7-6 17-6 28h103" id="aT"/><path fill="#a9afb8" d="M210-169c-67 3-38 105-44 169h-31v-121c0-29-5-50-35-48C34-165 62-65 56 0H25l-1-190h30c1 10-1 24 2 32 10-44 99-50 107 0 11-21 27-35 58-36 85-2 47 119 55 194h-31v-121c0-29-5-49-35-48" id="aU"/><path fill="#a9afb8" d="M115-194c53 0 69 39 70 98 0 66-23 100-70 100C84 3 66-7 56-30L54 0H23l1-261h32v101c10-23 28-34 59-34zm-8 174c40 0 45-34 45-75 0-40-5-75-45-74-42 0-51 32-51 76 0 43 10 73 51 73" id="aV"/><path fill="#a9afb8" d="M114-163C36-179 61-72 57 0H25l-1-190h30c1 12-1 29 2 39 6-27 23-49 58-41v29" id="aW"/><g id="E"><use transform="matrix(0.04248971193415638,0,0,0.04248971193415638,0,0)" xlink:href="#aR"/><use transform="matrix(0.04248971193415638,0,0,0.04248971193415638,11.004835390946502,0)" xlink:href="#aI"/><use transform="matrix(0.04248971193415638,0,0,0.04248971193415638,19.502777777777776,0)" xlink:href="#aS"/><use transform="matrix(0.04248971193415638,0,0,0.04248971193415638,27.150925925925925,0)" xlink:href="#aT"/><use transform="matrix(0.04248971193415638,0,0,0.04248971193415638,35.6488683127572,0)" xlink:href="#aU"/><use transform="matrix(0.04248971193415638,0,0,0.04248971193415638,48.35329218106995,0)" xlink:href="#aV"/><use transform="matrix(0.04248971193415638,0,0,0.04248971193415638,56.851234567901244,0)" xlink:href="#aT"/><use transform="matrix(0.04248971193415638,0,0,0.04248971193415638,65.34917695473251,0)" xlink:href="#aW"/></g><path fill="#a9afb8" d="M101-251c82-7 93 87 43 132L82-64C71-53 59-42 53-27h129V0H18c2-99 128-94 128-182 0-28-16-43-45-43s-46 15-49 41l-32-3c6-41 34-60 81-64" id="aX"/><path fill="#a9afb8" d="M155-56V0h-30v-56H8v-25l114-167h33v167h35v25h-35zm-30-156c-27 46-58 90-88 131h88v-131" id="aY"/><path fill="#a9afb8" d="M68-38c1 34 0 65-14 84H32c9-13 17-26 17-46H33v-38h35" id="aZ"/><g id="F"><use transform="matrix(0.04248971193415638,0,0,0.04248971193415638,0,0)" xlink:href="#aX"/><use transform="matrix(0.04248971193415638,0,0,0.04248971193415638,8.497942386831275,0)" xlink:href="#aY"/><use transform="matrix(0.04248971193415638,0,0,0.04248971193415638,16.99588477366255,0)" xlink:href="#aZ"/></g><path fill="#a9afb8" d="M101-251c68 0 85 55 85 127S166 4 100 4C33 4 14-52 14-124c0-73 17-127 87-127zm-1 229c47 0 54-49 54-102s-4-102-53-102c-51 0-55 48-55 102 0 53 5 102 54 102" id="ba"/><g id="G"><use transform="matrix(0.04248971193415638,0,0,0.04248971193415638,0,0)" xlink:href="#aX"/><use transform="matrix(0.04248971193415638,0,0,0.04248971193415638,8.497942386831275,0)" xlink:href="#ba"/><use transform="matrix(0.04248971193415638,0,0,0.04248971193415638,16.99588477366255,0)" xlink:href="#aX"/><use transform="matrix(0.04248971193415638,0,0,0.04248971193415638,25.493827160493822,0)" xlink:href="#ba"/></g><path fill="#333" d="M24 0v-248h52V0H24" id="bb"/><path fill="#333" d="M135-194c87-1 58 113 63 194h-50c-7-57 23-157-34-157-59 0-34 97-39 157H25l-1-190h47c2 12-1 28 3 38 12-26 28-41 61-42" id="bc"/><path fill="#333" d="M195-6C206 82 75 100 31 46c-4-6-6-13-8-21l49-6c3 16 16 24 34 25 40 0 42-37 40-79-11 22-30 35-61 35-53 0-70-43-70-97 0-56 18-96 73-97 30 0 46 14 59 34l2-30h47zm-90-29c32 0 41-27 41-63 0-35-9-62-40-62-32 0-39 29-40 63 0 36 9 62 39 62" id="bd"/><path fill="#333" d="M135-150c-39-12-60 13-60 57V0H25l-1-190h47c2 13-1 29 3 40 6-28 27-53 61-41v41" id="be"/><path fill="#333" d="M185-48c-13 30-37 53-82 52C43 2 14-33 14-96s30-98 90-98c62 0 83 45 84 108H66c0 31 8 55 39 56 18 0 30-7 34-22zm-45-69c5-46-57-63-70-21-2 6-4 13-4 21h74" id="bf"/><path fill="#333" d="M88-194c31-1 46 15 58 34l-1-101h50l1 261h-48c-2-10 0-23-3-31C134-8 116 4 84 4 32 4 16-41 15-95c0-56 19-97 73-99zm17 164c33 0 40-30 41-66 1-37-9-64-41-64s-38 30-39 65c0 43 13 65 39 65" id="bg"/><path fill="#333" d="M25-224v-37h50v37H25zM25 0v-190h50V0H25" id="bh"/><path fill="#333" d="M115-3C79 11 28 4 28-45v-112H4v-33h27l15-45h31v45h36v33H77v99c-1 23 16 31 38 25v30" id="bi"/><g id="H"><use transform="matrix(0.05,0,0,0.05,0,0)" xlink:href="#bb"/><use transform="matrix(0.05,0,0,0.05,5,0)" xlink:href="#bc"/><use transform="matrix(0.05,0,0,0.05,15.950000000000001,0)" xlink:href="#bd"/><use transform="matrix(0.05,0,0,0.05,26.900000000000002,0)" xlink:href="#be"/><use transform="matrix(0.05,0,0,0.05,33.900000000000006,0)" xlink:href="#bf"/><use transform="matrix(0.05,0,0,0.05,43.900000000000006,0)" xlink:href="#bg"/><use transform="matrix(0.05,0,0,0.05,54.85,0)" xlink:href="#bh"/><use transform="matrix(0.05,0,0,0.05,59.85,0)" xlink:href="#bf"/><use transform="matrix(0.05,0,0,0.05,69.85000000000001,0)" xlink:href="#bc"/><use transform="matrix(0.05,0,0,0.05,80.80000000000001,0)" xlink:href="#bi"/></g><path fill="#333" d="M169-182c-1-43-94-46-97-3 18 66 151 10 154 114 3 95-165 93-204 36-6-8-10-19-12-30l50-8c3 46 112 56 116 5-17-69-150-10-154-114-4-87 153-88 188-35 5 8 8 18 10 28" id="bj"/><path fill="#333" d="M85 4C-2 5 27-109 22-190h50c7 57-23 150 33 157 60-5 35-97 40-157h50l1 190h-47c-2-12 1-28-3-38-12 25-28 42-61 42" id="bk"/><path fill="#333" d="M135-194c52 0 70 43 70 98 0 56-19 99-73 100-30 1-46-15-58-35L72 0H24l1-261h50v104c11-23 29-37 60-37zM114-30c31 0 40-27 40-66 0-37-7-63-39-63s-41 28-41 65c0 36 8 64 40 64" id="bl"/><path fill="#333" d="M14-72v-43h91v43H14" id="bm"/><path fill="#333" d="M199 0l-22-63H83L61 0H9l90-248h61L250 0h-51zm-33-102l-36-108c-10 38-24 72-36 108h72" id="bn"/><path fill="#333" d="M133-34C117-15 103 5 69 4 32 3 11-16 11-54c-1-60 55-63 116-61 1-26-3-47-28-47-18 1-26 9-28 27l-52-2c7-38 36-58 82-57s74 22 75 68l1 82c-1 14 12 18 25 15v27c-30 8-71 5-69-32zm-48 3c29 0 43-24 42-57-32 0-66-3-65 30 0 17 8 27 23 27" id="bo"/><path fill="#333" d="M123 10C108 53 80 86 19 72V37c35 8 53-11 59-39L3-190h52l48 148c12-52 28-100 44-148h51" id="bp"/><g id="I"><use transform="matrix(0.05,0,0,0.05,0,0)" xlink:href="#bj"/><use transform="matrix(0.05,0,0,0.05,12,0)" xlink:href="#bk"/><use transform="matrix(0.05,0,0,0.05,22.950000000000003,0)" xlink:href="#bl"/><use transform="matrix(0.05,0,0,0.05,33.900000000000006,0)" xlink:href="#bm"/><use transform="matrix(0.05,0,0,0.05,39.85000000000001,0)" xlink:href="#bn"/><use transform="matrix(0.05,0,0,0.05,52.80000000000001,0)" xlink:href="#be"/><use transform="matrix(0.05,0,0,0.05,59.80000000000001,0)" xlink:href="#be"/><use transform="matrix(0.05,0,0,0.05,66.80000000000001,0)" xlink:href="#bo"/><use transform="matrix(0.05,0,0,0.05,76.80000000000001,0)" xlink:href="#bp"/></g><path fill="#333" d="M190-63c-7 42-38 67-86 67-59 0-84-38-90-98-12-110 154-137 174-36l-49 2c-2-19-15-32-35-32-30 0-35 28-38 64-6 74 65 87 74 30" id="bq"/><g id="J"><use transform="matrix(0.05,0,0,0.05,0,0)" xlink:href="#bj"/><use transform="matrix(0.05,0,0,0.05,12,0)" xlink:href="#bi"/><use transform="matrix(0.05,0,0,0.05,17.95,0)" xlink:href="#be"/><use transform="matrix(0.05,0,0,0.05,24.95,0)" xlink:href="#bk"/><use transform="matrix(0.05,0,0,0.05,35.9,0)" xlink:href="#bq"/><use transform="matrix(0.05,0,0,0.05,45.9,0)" xlink:href="#bi"/><use transform="matrix(0.05,0,0,0.05,51.85,0)" xlink:href="#bk"/><use transform="matrix(0.05,0,0,0.05,62.800000000000004,0)" xlink:href="#be"/><use transform="matrix(0.05,0,0,0.05,69.80000000000001,0)" xlink:href="#bf"/></g><path fill="#333" d="M101-251c68 0 85 55 85 127S166 4 100 4C33 4 14-52 14-124c0-73 17-127 87-127zm-1 229c47 0 54-49 54-102s-4-102-53-102c-51 0-55 48-55 102 0 53 5 102 54 102" id="br"/><path fill="#333" d="M33-261c38 41 65 92 65 168S71 34 33 75H2C39 34 66-17 66-93S39-220 2-261h31" id="bs"/><g id="K"><use transform="matrix(0.05,0,0,0.05,0,0)" xlink:href="#br"/><use transform="matrix(0.05,0,0,0.05,10,0)" xlink:href="#bs"/></g><path fill="#333" d="M33 0v-248h34V0H33" id="bt"/><path fill="#333" d="M117-194c89-4 53 116 60 194h-32v-121c0-31-8-49-39-48C34-167 62-67 57 0H25l-1-190h30c1 10-1 24 2 32 11-22 29-35 61-36" id="bu"/><path fill="#333" d="M177-190C167-65 218 103 67 71c-23-6-38-20-44-43l32-5c15 47 100 32 89-28v-30C133-14 115 1 83 1 29 1 15-40 15-95c0-56 16-97 71-98 29-1 48 16 59 35 1-10 0-23 2-32h30zM94-22c36 0 50-32 50-73 0-42-14-75-50-75-39 0-46 34-46 75s6 73 46 73" id="bv"/><path fill="#333" d="M114-163C36-179 61-72 57 0H25l-1-190h30c1 12-1 29 2 39 6-27 23-49 58-41v29" id="bw"/><path fill="#333" d="M100-194c63 0 86 42 84 106H49c0 40 14 67 53 68 26 1 43-12 49-29l28 8c-11 28-37 45-77 45C44 4 14-33 15-96c1-61 26-98 85-98zm52 81c6-60-76-77-97-28-3 7-6 17-6 28h103" id="bx"/><path fill="#333" d="M85-194c31 0 48 13 60 33l-1-100h32l1 261h-30c-2-10 0-23-3-31C134-8 116 4 85 4 32 4 16-35 15-94c0-66 23-100 70-100zm9 24c-40 0-46 34-46 75 0 40 6 74 45 74 42 0 51-32 51-76 0-42-9-74-50-73" id="by"/><path fill="#333" d="M24-231v-30h32v30H24zM24 0v-190h32V0H24" id="bz"/><path fill="#333" d="M59-47c-2 24 18 29 38 22v24C64 9 27 4 27-40v-127H5v-23h24l9-43h21v43h35v23H59v120" id="bA"/><g id="L"><use transform="matrix(0.05,0,0,0.05,0,0)" xlink:href="#bt"/><use transform="matrix(0.05,0,0,0.05,5,0)" xlink:href="#bu"/><use transform="matrix(0.05,0,0,0.05,15,0)" xlink:href="#bv"/><use transform="matrix(0.05,0,0,0.05,25,0)" xlink:href="#bw"/><use transform="matrix(0.05,0,0,0.05,30.950000000000003,0)" xlink:href="#bx"/><use transform="matrix(0.05,0,0,0.05,40.95,0)" xlink:href="#by"/><use transform="matrix(0.05,0,0,0.05,50.95,0)" xlink:href="#bz"/><use transform="matrix(0.05,0,0,0.05,54.900000000000006,0)" xlink:href="#bx"/><use transform="matrix(0.05,0,0,0.05,64.9,0)" xlink:href="#bu"/><use transform="matrix(0.05,0,0,0.05,74.9,0)" xlink:href="#bA"/></g><path fill="#333" d="M190 0L58-211 59 0H30v-248h39L202-35l-2-213h31V0h-41" id="bB"/><path fill="#333" d="M141-36C126-15 110 5 73 4 37 3 15-17 15-53c-1-64 63-63 125-63 3-35-9-54-41-54-24 1-41 7-42 31l-33-3c5-37 33-52 76-52 45 0 72 20 72 64v82c-1 20 7 32 28 27v20c-31 9-61-2-59-35zM48-53c0 20 12 33 32 33 41-3 63-29 60-74-43 2-92-5-92 41" id="bC"/><path fill="#333" d="M210-169c-67 3-38 105-44 169h-31v-121c0-29-5-50-35-48C34-165 62-65 56 0H25l-1-190h30c1 10-1 24 2 32 10-44 99-50 107 0 11-21 27-35 58-36 85-2 47 119 55 194h-31v-121c0-29-5-49-35-48" id="bD"/><g id="M"><use transform="matrix(0.05,0,0,0.05,0,0)" xlink:href="#bB"/><use transform="matrix(0.05,0,0,0.05,12.950000000000001,0)" xlink:href="#bC"/><use transform="matrix(0.05,0,0,0.05,22.950000000000003,0)" xlink:href="#bD"/><use transform="matrix(0.05,0,0,0.05,37.900000000000006,0)" xlink:href="#bx"/></g><path fill="#333" d="M87 75C49 33 22-17 22-94c0-76 28-126 65-167h31c-38 41-64 92-64 168S80 34 118 75H87" id="bE"/><path fill="#333" d="M185-189c-5-48-123-54-124 2 14 75 158 14 163 119 3 78-121 87-175 55-17-10-28-26-33-46l33-7c5 56 141 63 141-1 0-78-155-14-162-118-5-82 145-84 179-34 5 7 8 16 11 25" id="bF"/><g id="N"><use transform="matrix(0.05,0,0,0.05,0,0)" xlink:href="#bE"/><use transform="matrix(0.05,0,0,0.05,5.95,0)" xlink:href="#bF"/><use transform="matrix(0.05,0,0,0.05,17.95,0)" xlink:href="#bA"/><use transform="matrix(0.05,0,0,0.05,22.95,0)" xlink:href="#bw"/><use transform="matrix(0.05,0,0,0.05,28.899999999999995,0)" xlink:href="#bz"/><use transform="matrix(0.05,0,0,0.05,32.85,0)" xlink:href="#bu"/><use transform="matrix(0.05,0,0,0.05,42.85,0)" xlink:href="#bv"/><use transform="matrix(0.05,0,0,0.05,52.85,0)" xlink:href="#bs"/></g><path fill="#333" d="M27 0v-27h64v-190l-56 39v-29l58-41h29v221h61V0H27" id="bG"/><g id="O"><use transform="matrix(0.05,0,0,0.05,0,0)" xlink:href="#bG"/><use transform="matrix(0.05,0,0,0.05,10,0)" xlink:href="#bs"/></g><path fill="#333" d="M205 0l-28-72H64L36 0H1l101-248h38L239 0h-34zm-38-99l-47-123c-12 45-31 82-46 123h93" id="bH"/><path fill="#333" d="M100-194c62-1 85 37 85 99 1 63-27 99-86 99S16-35 15-95c0-66 28-99 85-99zM99-20c44 1 53-31 53-75 0-43-8-75-51-75s-53 32-53 75 10 74 51 75" id="bI"/><path fill="#333" d="M84 4C-5 8 30-112 23-190h32v120c0 31 7 50 39 49 72-2 45-101 50-169h31l1 190h-30c-1-10 1-25-2-33-11 22-28 36-60 37" id="bJ"/><g id="P"><use transform="matrix(0.05,0,0,0.05,0,0)" xlink:href="#bH"/><use transform="matrix(0.05,0,0,0.05,12,0)" xlink:href="#bD"/><use transform="matrix(0.05,0,0,0.05,26.950000000000003,0)" xlink:href="#bI"/><use transform="matrix(0.05,0,0,0.05,36.95,0)" xlink:href="#bJ"/><use transform="matrix(0.05,0,0,0.05,46.95,0)" xlink:href="#bu"/><use transform="matrix(0.05,0,0,0.05,56.95,0)" xlink:href="#bA"/></g><g id="Q"><use transform="matrix(0.05,0,0,0.05,0,0)" xlink:href="#bz"/><use transform="matrix(0.05,0,0,0.05,3.95,0)" xlink:href="#bu"/></g><path fill="#333" d="M240 0l2-218c-23 76-54 145-80 218h-23L58-218 59 0H30v-248h44l77 211c21-75 51-140 76-211h43V0h-30" id="bK"/><path fill="#333" d="M96-169c-40 0-48 33-48 73s9 75 48 75c24 0 41-14 43-38l32 2c-6 37-31 61-74 61-59 0-76-41-82-99-10-93 101-131 147-64 4 7 5 14 7 22l-32 3c-4-21-16-35-41-35" id="bL"/><g id="R"><use transform="matrix(0.05,0,0,0.05,0,0)" xlink:href="#bK"/><use transform="matrix(0.05,0,0,0.05,14.950000000000001,0)" xlink:href="#bx"/><use transform="matrix(0.05,0,0,0.05,24.950000000000003,0)" xlink:href="#bA"/><use transform="matrix(0.05,0,0,0.05,29.950000000000003,0)" xlink:href="#bw"/><use transform="matrix(0.05,0,0,0.05,35.900000000000006,0)" xlink:href="#bz"/><use transform="matrix(0.05,0,0,0.05,39.85000000000001,0)" xlink:href="#bL"/></g><path fill="#333" d="M30-248c118-7 216 8 213 122C240-48 200 0 122 0H30v-248zM63-27c89 8 146-16 146-99s-60-101-146-95v194" id="bM"/><path fill="#333" d="M115-194c53 0 69 39 70 98 0 66-23 100-70 100C84 3 66-7 56-30L54 0H23l1-261h32v101c10-23 28-34 59-34zm-8 174c40 0 45-34 45-75 0-40-5-75-45-74-42 0-51 32-51 76 0 43 10 73 51 73" id="bN"/><path fill="#333" d="M24 0v-261h32V0H24" id="bO"/><g id="S"><use transform="matrix(0.05,0,0,0.05,0,0)" xlink:href="#bE"/><use transform="matrix(0.05,0,0,0.05,5.95,0)" xlink:href="#bM"/><use transform="matrix(0.05,0,0,0.05,18.900000000000002,0)" xlink:href="#bI"/><use transform="matrix(0.05,0,0,0.05,28.900000000000002,0)" xlink:href="#bJ"/><use transform="matrix(0.05,0,0,0.05,38.900000000000006,0)" xlink:href="#bN"/><use transform="matrix(0.05,0,0,0.05,48.900000000000006,0)" xlink:href="#bO"/><use transform="matrix(0.05,0,0,0.05,52.85,0)" xlink:href="#bx"/><use transform="matrix(0.05,0,0,0.05,62.85,0)" xlink:href="#bs"/></g><path fill="#333" d="M101-251c82-7 93 87 43 132L82-64C71-53 59-42 53-27h129V0H18c2-99 128-94 128-182 0-28-16-43-45-43s-46 15-49 41l-32-3c6-41 34-60 81-64" id="bP"/><g id="T"><use transform="matrix(0.05,0,0,0.05,0,0)" xlink:href="#bP"/><use transform="matrix(0.05,0,0,0.05,10,0)" xlink:href="#bs"/></g><path fill="#333" d="M232-93c-1 65-40 97-104 97C67 4 28-28 28-90v-158h33c8 89-33 224 67 224 102 0 64-133 71-224h33v155" id="bQ"/><g id="U"><use transform="matrix(0.05,0,0,0.05,0,0)" xlink:href="#bQ"/><use transform="matrix(0.05,0,0,0.05,12.950000000000001,0)" xlink:href="#bu"/><use transform="matrix(0.05,0,0,0.05,22.950000000000003,0)" xlink:href="#bz"/><use transform="matrix(0.05,0,0,0.05,26.900000000000002,0)" xlink:href="#bA"/></g><path fill="#333" d="M126-127c33 6 58 20 58 59 0 88-139 92-164 29-3-8-5-16-6-25l32-3c6 27 21 44 54 44 32 0 52-15 52-46 0-38-36-46-79-43v-28c39 1 72-4 72-42 0-27-17-43-46-43-28 0-47 15-49 41l-32-3c6-42 35-63 81-64 48-1 79 21 79 65 0 36-21 52-52 59" id="bR"/><g id="V"><use transform="matrix(0.05,0,0,0.05,0,0)" xlink:href="#bR"/><use transform="matrix(0.05,0,0,0.05,10,0)" xlink:href="#bs"/></g><path fill="#333" d="M115-194c55 1 70 41 70 98S169 2 115 4C84 4 66-9 55-30l1 105H24l-1-265h31l2 30c10-21 28-34 59-34zm-8 174c40 0 45-34 45-75s-6-73-45-74c-42 0-51 32-51 76 0 43 10 73 51 73" id="bS"/><g id="W"><use transform="matrix(0.05,0,0,0.05,0,0)" xlink:href="#bt"/><use transform="matrix(0.05,0,0,0.05,5,0)" xlink:href="#bD"/><use transform="matrix(0.05,0,0,0.05,19.950000000000003,0)" xlink:href="#bS"/><use transform="matrix(0.05,0,0,0.05,29.950000000000003,0)" xlink:href="#bx"/><use transform="matrix(0.05,0,0,0.05,39.95,0)" xlink:href="#bw"/><use transform="matrix(0.05,0,0,0.05,45.900000000000006,0)" xlink:href="#bz"/><use transform="matrix(0.05,0,0,0.05,49.85000000000001,0)" xlink:href="#bC"/><use transform="matrix(0.05,0,0,0.05,59.85,0)" xlink:href="#bO"/></g><path fill="#333" d="M155-56V0h-30v-56H8v-25l114-167h33v167h35v25h-35zm-30-156c-27 46-58 90-88 131h88v-131" id="bT"/><g id="X"><use transform="matrix(0.05,0,0,0.05,0,0)" xlink:href="#bT"/><use transform="matrix(0.05,0,0,0.05,10,0)" xlink:href="#bs"/></g><g id="Y"><use transform="matrix(0.05,0,0,0.05,0,0)" xlink:href="#bE"/><use transform="matrix(0.05,0,0,0.05,5.95,0)" xlink:href="#bF"/><use transform="matrix(0.05,0,0,0.05,17.95,0)" xlink:href="#bA"/><use transform="matrix(0.05,0,0,0.05,22.95,0)" xlink:href="#bw"/><use transform="matrix(0.05,0,0,0.05,28.899999999999995,0)" xlink:href="#bz"/><use transform="matrix(0.05,0,0,0.05,32.85,0)" xlink:href="#bu"/><use transform="matrix(0.05,0,0,0.05,42.85,0)" xlink:href="#bv"/><use transform="matrix(0.05,0,0,0.05,52.85,0)" xlink:href="#bs"/></g></defs></g></svg>